<?plantuml 1.2026.2?><svg xmlns="http://www.w3.org/2000/svg" xmlns:xlink="http://www.w3.org/1999/xlink" contentStyleType="text/css" data-diagram-type="ACTIVITY" height="3765px" preserveAspectRatio="none" style="width:1375px;height:3765px;background:#FFFFFF;" version="1.1" viewBox="0 0 1375 3765" width="1375px" zoomAndPan="magnify"><title>GPU License Plate Recognition Pipeline</title><defs/><g><g class="title" data-source-line="1"><text fill="#000000" font-family="sans-serif" font-size="14" font-weight="bold" lengthAdjust="spacing" textLength="271.403" x="550.7625" y="34.9659">GPU License Plate Recognition Pipeline</text></g><rect fill="none" height="24.5158" style="stroke:none;stroke-width:1;" width="1342.9279" x="15" y="53.8419"/><ellipse cx="197.4696" cy="93.3577" fill="#222222" rx="10" ry="10" style="stroke:#222222;stroke-width:1;"/><rect fill="#F9F9F9" height="52.6882" rx="12.5" ry="12.5" style="stroke:#444444;stroke-width:0.5;" width="232.8215" x="81.0589" y="123.3577"/><text fill="#000000" font-family="sans-serif" font-size="12" lengthAdjust="spacing" textLength="80.4606" x="91.0589" y="146.1858">Parse CLI args</text><text fill="#000000" font-family="sans-serif" font-size="12" lengthAdjust="spacing" textLength="212.8215" x="91.0589" y="162.5299">(image path, --max-plates N, csv path)</text><path d="M360.9459,190.1501 L360.9459,226.5621 L340.9459,230.5621 L360.9459,234.5621 L360.9459,270.9742 A0,0 0 0 0 360.9459,270.9742 L621.0537,270.9742 A0,0 0 0 0 621.0537,270.9742 L621.0537,200.1501 L611.0537,190.1501 L360.9459,190.1501 A0,0 0 0 0 360.9459,190.1501" fill="#FFFDE7" style="stroke:#F0AD4E;stroke-width:0.5;"/><path d="M611.0537,190.1501 L611.0537,200.1501 L621.0537,200.1501 L611.0537,190.1501" fill="#FFFDE7" style="stroke:#F0AD4E;stroke-width:0.5;"/><text fill="#000000" font-family="sans-serif" font-size="13" font-weight="bold" lengthAdjust="spacing" textLength="111.1487" x="366.9459" y="209.0471">H &#8594; D  (one-time)</text><text fill="#000000" font-family="sans-serif" font-size="13" lengthAdjust="spacing" textLength="186.9012" x="366.9459" y="226.7531">180 &#215; 600 float32 training data</text><text fill="#000000" font-family="sans-serif" font-size="13" lengthAdjust="spacing" textLength="106.3921" x="366.9459" y="244.4591">180 &#215; int32 labels</text><text fill="#000000" font-family="sans-serif" font-size="13" lengthAdjust="spacing" textLength="239.1078" x="366.9459" y="262.1652">&#8594; GPU VRAM (persistent for all images)</text><rect fill="#F9F9F9" height="69.0323" rx="12.5" ry="12.5" style="stroke:#444444;stroke-width:0.5;" width="286.9525" x="53.9934" y="196.046"/><text fill="#000000" font-family="sans-serif" font-size="12" lengthAdjust="spacing" textLength="175.3692" x="63.9934" y="218.874">loadKNNModel("knn_data.bin")</text><text fill="#000000" font-family="sans-serif" font-size="12" lengthAdjust="spacing" textLength="266.9525" x="63.9934" y="235.2182">read header &#8594; numSamples=180, features=600</text><text fill="#000000" font-family="sans-serif" font-size="12" lengthAdjust="spacing" textLength="163.6812" x="63.9934" y="251.5623">read labels[] + feature matrix</text><rect fill="#F9F9F9" height="52.6882" rx="12.5" ry="12.5" style="stroke:#444444;stroke-width:0.5;" width="179.3011" x="107.8191" y="290.9742"/><text fill="#000000" font-family="sans-serif" font-size="12" lengthAdjust="spacing" textLength="159.3011" x="117.8191" y="313.8023">Collect all .ppm image paths</text><text fill="#000000" font-family="sans-serif" font-size="12" lengthAdjust="spacing" textLength="128.077" x="117.8191" y="330.1464">from directory (sorted)</text><rect fill="#F9F9F9" height="183.4411" rx="12.5" ry="12.5" style="stroke:#444444;stroke-width:0.5;" width="257.4457" x="68.7468" y="363.6624"/><text fill="#000000" font-family="sans-serif" font-size="12" lengthAdjust="spacing" textLength="196.1054" x="78.7468" y="386.4905">PipelineContext::create(maxPlates)</text><text fill="#000000" font-family="sans-serif" font-size="12" lengthAdjust="spacing" textLength="216.7383" x="78.7468" y="402.8346">&#9472;&#9472;&#9472;&#9472;&#9472;&#9472;&#9472;&#9472;&#9472;&#9472;&#9472;&#9472;&#9472;&#9472;&#9472;&#9472;&#9472;&#9472;&#9472;&#9472;&#9472;&#9472;&#9472;&#9472;&#9472;&#9472;&#9472;&#9472;&#9472;&#9472;</text><text fill="#000000" font-family="sans-serif" font-size="12" lengthAdjust="spacing" textLength="200.616" x="78.7468" y="419.1787">cudaStreamCreate  &#8594;  sceneStream</text><text fill="#000000" font-family="sans-serif" font-size="12" lengthAdjust="spacing" textLength="232.5243" x="78.7468" y="435.5228">cudaStreamCreate  &#8594;  plateStreams[0..N]</text><text fill="#000000" font-family="sans-serif" font-size="12" lengthAdjust="spacing" textLength="167.5692" x="78.7468" y="451.8669">cudaMalloc + cudaMallocHost</text><text fill="#000000" font-family="sans-serif" font-size="12" lengthAdjust="spacing" textLength="112.3808" x="84.9868" y="468.2111">per PlateBuffer slot:</text><text fill="#000000" font-family="sans-serif" font-size="12" lengthAdjust="spacing" textLength="200.6054" x="84.9868" y="484.5552">d_plate_bgr, d_thresh, d_thresh_big</text><text fill="#000000" font-family="sans-serif" font-size="12" lengthAdjust="spacing" textLength="200.1734" x="84.9868" y="500.8993">d_thresh_otsu, d_filtered, d_queries</text><text fill="#000000" font-family="sans-serif" font-size="12" lengthAdjust="spacing" textLength="188.8453" x="84.9868" y="517.2434">d_knn_results, h_filtered, h_labels</text><text fill="#000000" font-family="sans-serif" font-size="12" lengthAdjust="spacing" textLength="237.4457" x="78.7468" y="533.5875">SceneBuffer: d_filtered, h_filtered (pinned)</text><rect fill="#F9F9F9" height="69.0323" rx="12.5" ry="12.5" style="stroke:#444444;stroke-width:0.5;" width="226.58" x="84.1796" y="611.1035"/><text fill="#000000" font-family="sans-serif" font-size="12" lengthAdjust="spacing" textLength="104.5087" x="94.1796" y="633.9316">loadPPM(imgPath)</text><text fill="#000000" font-family="sans-serif" font-size="12" lengthAdjust="spacing" textLength="206.58" x="94.1796" y="650.2757">&#8594; HostImage { data*, width, height }</text><text fill="#000000" font-family="sans-serif" font-size="12" lengthAdjust="spacing" textLength="158.4131" x="100.4197" y="666.6199">(raw RGB bytes in CPU RAM)</text><rect fill="#F9F9F9" height="52.6882" rx="12.5" ry="12.5" style="stroke:#444444;stroke-width:0.5;" width="236.5775" x="79.1809" y="1325.0828"/><text fill="#000000" font-family="sans-serif" font-size="12" lengthAdjust="spacing" textLength="216.5775" x="89.1809" y="1347.9109">cudaStreamSynchronize(sceneStream)</text><text fill="#000000" font-family="sans-serif" font-size="12" lengthAdjust="spacing" textLength="154.0903" x="89.1809" y="1364.2551">&#8592; wait for CCL D&#8594;H to land</text><rect fill="#F9F9F9" height="52.6882" rx="12.5" ry="12.5" style="stroke:#444444;stroke-width:0.5;" width="162.261" x="116.3391" y="1397.7711"/><text fill="#000000" font-family="sans-serif" font-size="12" lengthAdjust="spacing" textLength="142.261" x="126.3391" y="1420.5992">cudaFree d_scene_thresh</text><text fill="#000000" font-family="sans-serif" font-size="12" lengthAdjust="spacing" textLength="126.169" x="126.3391" y="1436.9433">freePreprocessBuffers</text><rect fill="#F9F9F9" height="52.6882" rx="12.5" ry="12.5" style="stroke:#444444;stroke-width:0.5;" width="232.7135" x="81.1129" y="1470.4593"/><text fill="#000000" font-family="sans-serif" font-size="12" lengthAdjust="spacing" textLength="212.7135" x="91.1129" y="1493.2874">blobsToChars(h_filtered, numFiltered)</text><text fill="#000000" font-family="sans-serif" font-size="12" lengthAdjust="spacing" textLength="210.0601" x="91.1129" y="1509.6315">&#8594; PossibleChar[] with bounding rects</text><rect fill="#F9F9F9" height="101.7206" rx="12.5" ry="12.5" style="stroke:#444444;stroke-width:0.5;" width="239.3255" x="77.8069" y="1543.1475"/><text fill="#000000" font-family="sans-serif" font-size="12" lengthAdjust="spacing" textLength="104.6407" x="87.8069" y="1565.9756">groupChars(chars)</text><text fill="#000000" font-family="sans-serif" font-size="12" lengthAdjust="spacing" textLength="101.7367" x="87.8069" y="1582.3197">geometric checks:</text><text fill="#000000" font-family="sans-serif" font-size="12" lengthAdjust="spacing" textLength="167.1612" x="94.0469" y="1598.6639">distance, angle, size similarity</text><text fill="#000000" font-family="sans-serif" font-size="12" lengthAdjust="spacing" textLength="184.0199" x="87.8069" y="1615.008">&#8594; vector&lt;vector&lt;PossibleChar&gt;&gt;</text><text fill="#000000" font-family="sans-serif" font-size="12" lengthAdjust="spacing" textLength="213.0855" x="94.0469" y="1631.3521">(each inner vec = one plate candidate)</text><rect fill="#F9F9F9" height="36.3441" rx="12.5" ry="12.5" style="stroke:#444444;stroke-width:0.5;" width="80.9484" x="156.9954" y="1714.3591"/><text fill="#000000" font-family="sans-serif" font-size="12" lengthAdjust="spacing" textLength="60.9484" x="166.9954" y="1737.1871">skip image</text><polygon fill="#F9F9F9" points="151.699,1664.8681,243.2403,1664.8681,255.2403,1676.8681,243.2403,1688.8681,151.699,1688.8681,139.699,1676.8681,151.699,1664.8681" style="stroke:#444444;stroke-width:0.5;"/><text fill="#000000" font-family="sans-serif" font-size="11" lengthAdjust="spacing" textLength="17.0829" x="201.4696" y="1700.627">yes</text><text fill="#000000" font-family="sans-serif" font-size="11" lengthAdjust="spacing" textLength="91.5413" x="151.699" y="1681.1361">no groups found?</text><text fill="#000000" font-family="sans-serif" font-size="11" lengthAdjust="spacing" textLength="13.4529" x="255.2403" y="1673.6451">no</text><rect fill="#F9F9F9" height="85.3765" rx="12.5" ry="12.5" style="stroke:#444444;stroke-width:0.5;" width="234.3921" x="80.2736" y="1812.7032"/><text fill="#000000" font-family="sans-serif" font-size="12" lengthAdjust="spacing" textLength="126.2529" x="90.2736" y="1835.5313">makePlate() per group</text><text fill="#000000" font-family="sans-serif" font-size="12" lengthAdjust="spacing" textLength="203.5695" x="90.2736" y="1851.8754">compute rotated rect center + angle</text><text fill="#000000" font-family="sans-serif" font-size="12" lengthAdjust="spacing" textLength="214.3921" x="90.2736" y="1868.2195">check dimensions &#8804; MAX_PLATE_W&#215;H</text><text fill="#000000" font-family="sans-serif" font-size="12" lengthAdjust="spacing" textLength="182.7239" x="90.2736" y="1884.5636">&#8594; WarpParams[], PossiblePlate[]</text><rect fill="#F9F9F9" height="52.6882" rx="12.5" ry="12.5" style="stroke:#444444;stroke-width:0.5;" width="236.5775" x="79.1809" y="2049.8057"/><text fill="#000000" font-family="sans-serif" font-size="12" lengthAdjust="spacing" textLength="216.5775" x="89.1809" y="2072.6338">cudaStreamSynchronize(sceneStream)</text><text fill="#000000" font-family="sans-serif" font-size="12" lengthAdjust="spacing" textLength="155.2318" x="89.1809" y="2088.9779">&#8592; wait for all crops to finish</text><path d="M290.1401,2117.96 L290.1401,2136.666 L270.1401,2140.666 L290.1401,2144.666 L290.1401,2163.372 A0,0 0 0 0 290.1401,2163.372 L578.7454,2163.372 A0,0 0 0 0 578.7454,2163.372 L578.7454,2127.96 L568.7454,2117.96 L290.1401,2117.96 A0,0 0 0 0 290.1401,2117.96" fill="#FFFDE7" style="stroke:#F0AD4E;stroke-width:0.5;"/><path d="M568.7454,2117.96 L568.7454,2127.96 L578.7454,2127.96 L568.7454,2117.96" fill="#FFFDE7" style="stroke:#F0AD4E;stroke-width:0.5;"/><text fill="#000000" font-family="sans-serif" font-size="13" font-weight="bold" lengthAdjust="spacing" textLength="267.6053" x="296.1401" y="2136.857">WAVE 1 &#8212; all plateStreams run in parallel</text><text fill="#000000" font-family="sans-serif" font-size="13" lengthAdjust="spacing" textLength="241.5922" x="296.1401" y="2154.563">One CUDA stream per plate slot (0..N-1)</text><rect fill="#F9F9F9" height="36.3441" rx="12.5" ry="12.5" style="stroke:#444444;stroke-width:0.5;" width="145.3409" x="124.7992" y="2122.4939"/><text fill="#000000" font-family="sans-serif" font-size="12" lengthAdjust="spacing" textLength="125.3409" x="134.7992" y="2145.322">cudaFree d_scene_bgr</text><rect fill="#555555" height="6" rx="2.5" ry="2.5" style="stroke:#555555;stroke-width:1;" width="293.8804" x="50.5295" y="2183.372"/><rect fill="#F9F9F9" height="52.6882" rx="12.5" ry="12.5" style="stroke:#444444;stroke-width:0.5;" width="202.6999" x="96.1197" y="2631.5014"/><text fill="#000000" font-family="sans-serif" font-size="12" lengthAdjust="spacing" textLength="140.173" x="106.1197" y="2654.3295">cudaDeviceSynchronize()</text><text fill="#000000" font-family="sans-serif" font-size="12" lengthAdjust="spacing" textLength="182.6999" x="106.1197" y="2670.6736">&#8592; all plate Wave-1 streams done</text><path d="M366.9393,2733.0248 L366.9393,2742.8778 L346.9393,2746.8778 L366.9393,2750.8778 L366.9393,2760.7308 A0,0 0 0 0 366.9393,2760.7308 L655.5446,2760.7308 A0,0 0 0 0 655.5446,2760.7308 L655.5446,2743.0248 L645.5446,2733.0248 L366.9393,2733.0248 A0,0 0 0 0 366.9393,2733.0248" fill="#FFFDE7" style="stroke:#F0AD4E;stroke-width:0.5;"/><path d="M645.5446,2733.0248 L645.5446,2743.0248 L655.5446,2743.0248 L645.5446,2733.0248" fill="#FFFDE7" style="stroke:#F0AD4E;stroke-width:0.5;"/><text fill="#000000" font-family="sans-serif" font-size="13" font-weight="bold" lengthAdjust="spacing" textLength="267.6053" x="372.9393" y="2751.9218">WAVE 2 &#8212; all plateStreams run in parallel</text><rect fill="#F9F9F9" height="85.3765" rx="12.5" ry="12.5" style="stroke:#444444;stroke-width:0.5;" width="298.9393" x="48" y="2704.1896"/><text fill="#000000" font-family="sans-serif" font-size="12" lengthAdjust="spacing" textLength="147.5171" x="58" y="2727.0177">bestCharGroup() per plate</text><text fill="#000000" font-family="sans-serif" font-size="12" lengthAdjust="spacing" textLength="278.9393" x="58" y="2743.3618">blobsToChars &#8594; groupChars &#8594; pick largest group</text><text fill="#000000" font-family="sans-serif" font-size="12" lengthAdjust="spacing" textLength="143.365" x="58" y="2759.7059">removeInnerOverlapping</text><text fill="#000000" font-family="sans-serif" font-size="12" lengthAdjust="spacing" textLength="134.4836" x="58" y="2776.05">&#8594; char bounding rects[]</text><rect fill="#555555" height="6" rx="2.5" ry="2.5" style="stroke:#555555;stroke-width:1;" width="296.7604" x="49.0894" y="2809.5661"/><rect fill="#F9F9F9" height="52.6882" rx="12.5" ry="12.5" style="stroke:#444444;stroke-width:0.5;" width="202.6999" x="96.1197" y="3194.0395"/><text fill="#000000" font-family="sans-serif" font-size="12" lengthAdjust="spacing" textLength="140.173" x="106.1197" y="3216.8676">cudaDeviceSynchronize()</text><text fill="#000000" font-family="sans-serif" font-size="12" lengthAdjust="spacing" textLength="182.6999" x="106.1197" y="3233.2117">&#8592; all plate Wave-2 streams done</text><rect fill="#F9F9F9" height="69.0323" rx="12.5" ry="12.5" style="stroke:#444444;stroke-width:0.5;" width="221.6347" x="86.6523" y="3266.7278"/><text fill="#000000" font-family="sans-serif" font-size="12" lengthAdjust="spacing" textLength="191.3893" x="96.6523" y="3289.5559">assembleString(h_labels, N_chars)</text><text fill="#000000" font-family="sans-serif" font-size="12" lengthAdjust="spacing" textLength="201.6347" x="96.6523" y="3305.9">cast ASCII int32 &#8594; char &#8594; std::string</text><text fill="#000000" font-family="sans-serif" font-size="12" lengthAdjust="spacing" textLength="92.1713" x="96.6523" y="3322.2441">&#8594; plate.strChars</text><rect fill="#F9F9F9" height="52.6882" rx="12.5" ry="12.5" style="stroke:#444444;stroke-width:0.5;" width="150.0089" x="122.4652" y="3355.7601"/><text fill="#000000" font-family="sans-serif" font-size="12" lengthAdjust="spacing" textLength="130.0089" x="132.4652" y="3378.5882">print recognised plates</text><text fill="#000000" font-family="sans-serif" font-size="12" lengthAdjust="spacing" textLength="127.2115" x="132.4652" y="3394.9323">(path &#8594; "SB90TZ", etc.)</text><polygon fill="#F9F9F9" points="197.4696,567.1035,209.4696,579.1035,197.4696,591.1035,185.4696,579.1035,197.4696,567.1035" style="stroke:#444444;stroke-width:0.5;"/><polygon fill="#F9F9F9" points="161.0434,3428.4483,233.8959,3428.4483,245.8959,3440.4483,233.8959,3452.4483,161.0434,3452.4483,149.0434,3440.4483,161.0434,3428.4483" style="stroke:#444444;stroke-width:0.5;"/><text fill="#000000" font-family="sans-serif" font-size="11" lengthAdjust="spacing" textLength="72.8525" x="161.0434" y="3444.7163">more images?</text><text fill="#000000" font-family="sans-serif" font-size="11" lengthAdjust="spacing" textLength="17.0829" x="245.8959" y="3437.2254">yes</text><rect fill="#F9F9F9" height="52.6882" rx="12.5" ry="12.5" style="stroke:#444444;stroke-width:0.5;" width="209.2053" x="92.867" y="3496.6532"/><text fill="#000000" font-family="sans-serif" font-size="12" lengthAdjust="spacing" textLength="105.8048" x="102.867" y="3519.4813">reporter.writeCsv()</text><text fill="#000000" font-family="sans-serif" font-size="12" lengthAdjust="spacing" textLength="189.2053" x="102.867" y="3535.8254">latency, throughput, plates, chars</text><rect fill="#F9F9F9" height="69.0323" rx="12.5" ry="12.5" style="stroke:#444444;stroke-width:0.5;" width="174.1171" x="110.4111" y="3569.3414"/><text fill="#000000" font-family="sans-serif" font-size="12" lengthAdjust="spacing" textLength="69.4205" x="120.4111" y="3592.1695">ctx.destroy()</text><text fill="#000000" font-family="sans-serif" font-size="12" lengthAdjust="spacing" textLength="154.1171" x="120.4111" y="3608.5136">free all GPU/pinned buffers</text><text fill="#000000" font-family="sans-serif" font-size="12" lengthAdjust="spacing" textLength="107.2328" x="120.4111" y="3624.8577">destroy all streams</text><rect fill="#F9F9F9" height="52.6882" rx="12.5" ry="12.5" style="stroke:#444444;stroke-width:0.5;" width="213.8493" x="90.545" y="3658.3738"/><text fill="#000000" font-family="sans-serif" font-size="12" lengthAdjust="spacing" textLength="90.8767" x="100.545" y="3681.2019">freeKNNModel()</text><text fill="#000000" font-family="sans-serif" font-size="12" lengthAdjust="spacing" textLength="193.8493" x="100.545" y="3697.546">cudaFree d_training, d_trainLabels</text><ellipse cx="197.4696" cy="3742.062" fill="none" rx="11" ry="11" style="stroke:#222222;stroke-width:1;"/><ellipse cx="197.4696" cy="3742.062" fill="#222222" rx="6" ry="6" style="stroke:#222222;stroke-width:1;"/><line style="stroke:#666666;stroke-width:2;" x1="15" x2="15" y1="53.8419" y2="3753.062"/><rect fill="#F9F9F9" height="85.3765" rx="12.5" ry="12.5" style="stroke:#444444;stroke-width:0.5;" width="289.8699" x="711.8111" y="700.1359"/><text fill="#000000" font-family="sans-serif" font-size="12" lengthAdjust="spacing" textLength="165.6252" x="721.8111" y="722.964">sceneBuffer.ensureSize(W, H)</text><text fill="#000000" font-family="sans-serif" font-size="12" lengthAdjust="spacing" textLength="257.6539" x="721.8111" y="739.3081">lazy realloc &#8212; no-op if same size as last frame</text><text fill="#000000" font-family="sans-serif" font-size="12" lengthAdjust="spacing" textLength="250.4178" x="721.8111" y="755.6522">(d_scene_bgr, d_scene_thresh, scenePreproc</text><text fill="#000000" font-family="sans-serif" font-size="12" lengthAdjust="spacing" textLength="269.8699" x="721.8111" y="771.9963">stay allocated across images in PipelineContext)</text><rect fill="#F9F9F9" height="69.0323" rx="12.5" ry="12.5" style="stroke:#444444;stroke-width:0.5;" width="233.3975" x="740.0473" y="805.5123"/><text fill="#000000" font-family="sans-serif" font-size="12" lengthAdjust="spacing" textLength="108.1328" x="750.0473" y="828.3404">cudaMemcpyAsync</text><text fill="#000000" font-family="sans-serif" font-size="12" font-weight="bold" lengthAdjust="spacing" textLength="28.0188" x="864.4201" y="828.3404">H&#8594;D</text><text fill="#000000" font-family="sans-serif" font-size="12" lengthAdjust="spacing" textLength="177.2999" x="750.0473" y="844.6845">HostImage.data &#8594; d_scene_bgr</text><text fill="#000000" font-family="sans-serif" font-size="12" lengthAdjust="spacing" textLength="213.3975" x="750.0473" y="861.0287">(W&#215;H&#215;3 bytes, async on sceneStream)</text><rect fill="#F9F9F9" height="150.7529" rx="12.5" ry="12.5" style="stroke:#444444;stroke-width:0.5;" width="380.403" x="666.5446" y="894.5447"/><text fill="#000000" font-family="sans-serif" font-size="12" lengthAdjust="spacing" textLength="231.1937" x="676.5446" y="917.3728">preprocessDevice  &#8212; 6 kernels, pipelined</text><text fill="#000000" font-family="sans-serif" font-size="12" lengthAdjust="spacing" textLength="296.209" x="676.5446" y="933.7169">&#9472;&#9472;&#9472;&#9472;&#9472;&#9472;&#9472;&#9472;&#9472;&#9472;&#9472;&#9472;&#9472;&#9472;&#9472;&#9472;&#9472;&#9472;&#9472;&#9472;&#9472;&#9472;&#9472;&#9472;&#9472;&#9472;&#9472;&#9472;&#9472;&#9472;&#9472;&#9472;&#9472;&#9472;&#9472;&#9472;&#9472;&#9472;&#9472;&#9472;&#9472;</text><text fill="#000000" font-family="sans-serif" font-size="12" lengthAdjust="spacing" textLength="266.8262" x="676.5446" y="950.061">&#9312; extractValueChannel  BGR &#8594; V (max channel)</text><text fill="#000000" font-family="sans-serif" font-size="12" lengthAdjust="spacing" textLength="173.6457" x="676.5446" y="966.4051">&#9313; erode                V &#8594; d_eroded</text><text fill="#000000" font-family="sans-serif" font-size="12" lengthAdjust="spacing" textLength="277.4344" x="676.5446" y="982.7492">&#9314; dilate               d_eroded &#8594; d_opened  (opening)</text><text fill="#000000" font-family="sans-serif" font-size="12" lengthAdjust="spacing" textLength="167.0696" x="676.5446" y="999.0933">&#9315; dilate               V &#8594; d_dilated</text><text fill="#000000" font-family="sans-serif" font-size="12" lengthAdjust="spacing" textLength="266.6343" x="676.5446" y="1015.4375">&#9316; erode                d_dilated &#8594; d_closed  (closing)</text><text fill="#000000" font-family="sans-serif" font-size="12" lengthAdjust="spacing" textLength="360.403" x="676.5446" y="1031.7816">&#9317; adaptiveThreshold    contrast+blur &#8594; d_scene_thresh  (binary)</text><rect fill="#F9F9F9" height="134.4088" rx="12.5" ry="12.5" style="stroke:#444444;stroke-width:0.5;" width="229.5137" x="741.9892" y="1065.2976"/><text fill="#000000" font-family="sans-serif" font-size="12" lengthAdjust="spacing" textLength="95.7247" x="751.9892" y="1088.1257">runCCLWithFilter</text><text fill="#000000" font-family="sans-serif" font-size="12" lengthAdjust="spacing" textLength="209.5137" x="751.9892" y="1104.4698">&#9472;&#9472;&#9472;&#9472;&#9472;&#9472;&#9472;&#9472;&#9472;&#9472;&#9472;&#9472;&#9472;&#9472;&#9472;&#9472;&#9472;&#9472;&#9472;&#9472;&#9472;&#9472;&#9472;&#9472;&#9472;&#9472;&#9472;&#9472;&#9472;</text><text fill="#000000" font-family="sans-serif" font-size="12" lengthAdjust="spacing" textLength="146.113" x="751.9892" y="1120.8139">initLabels  (1 thread/pixel)</text><text fill="#000000" font-family="sans-serif" font-size="12" lengthAdjust="spacing" textLength="205.2001" x="751.9892" y="1137.158">iterativeUnionFind  (&#8804;256 iterations)</text><text fill="#000000" font-family="sans-serif" font-size="12" lengthAdjust="spacing" textLength="201.6854" x="751.9892" y="1153.5021">computeStats  (bounding box, area)</text><text fill="#000000" font-family="sans-serif" font-size="12" lengthAdjust="spacing" textLength="205.2735" x="751.9892" y="1169.8463">filterBlobsKernel  (aspect ratio, area)</text><text fill="#000000" font-family="sans-serif" font-size="12" lengthAdjust="spacing" textLength="165.2518" x="751.9892" y="1186.1904">&#8594; d_filtered[], d_num_filtered</text><rect fill="#F9F9F9" height="85.3765" rx="12.5" ry="12.5" style="stroke:#444444;stroke-width:0.5;" width="258.4523" x="727.5199" y="1219.7064"/><text fill="#000000" font-family="sans-serif" font-size="12" lengthAdjust="spacing" textLength="108.1328" x="737.5199" y="1242.5345">cudaMemcpyAsync</text><text fill="#000000" font-family="sans-serif" font-size="12" font-weight="bold" lengthAdjust="spacing" textLength="28.0188" x="851.8927" y="1242.5345">D&#8594;H</text><text fill="#000000" font-family="sans-serif" font-size="12" lengthAdjust="spacing" textLength="175.6919" x="737.5199" y="1258.8786">d_filtered &#8594; h_filtered  (pinned)</text><text fill="#000000" font-family="sans-serif" font-size="12" lengthAdjust="spacing" textLength="238.4523" x="737.5199" y="1275.2227">d_num_filtered &#8594; h_num_filtered  (pinned)</text><text fill="#000000" font-family="sans-serif" font-size="12" lengthAdjust="spacing" textLength="132.9489" x="737.5199" y="1291.5668">(async on sceneStream)</text><rect fill="#F9F9F9" height="101.7206" rx="12.5" ry="12.5" style="stroke:#444444;stroke-width:0.5;" width="222.2891" x="745.6015" y="1918.0796"/><text fill="#000000" font-family="sans-serif" font-size="12" lengthAdjust="spacing" textLength="109.2368" x="755.6015" y="1940.9077">runBatchWarpCrop</text><text fill="#000000" font-family="sans-serif" font-size="12" lengthAdjust="spacing" textLength="202.2891" x="755.6015" y="1957.2518">&#9472;&#9472;&#9472;&#9472;&#9472;&#9472;&#9472;&#9472;&#9472;&#9472;&#9472;&#9472;&#9472;&#9472;&#9472;&#9472;&#9472;&#9472;&#9472;&#9472;&#9472;&#9472;&#9472;&#9472;&#9472;&#9472;&#9472;&#9472;</text><text fill="#000000" font-family="sans-serif" font-size="12" lengthAdjust="spacing" textLength="189.6973" x="755.6015" y="1973.5959">all plates in a single kernel launch</text><text fill="#000000" font-family="sans-serif" font-size="12" lengthAdjust="spacing" textLength="164.0892" x="755.6015" y="1989.9401">d_scene_bgr + WarpParams[]</text><text fill="#000000" font-family="sans-serif" font-size="12" lengthAdjust="spacing" textLength="191.784" x="755.6015" y="2006.2842">&#8594; d_plate_bgr[slot]  (per pool slot)</text><line style="stroke:#666666;stroke-width:2;" x1="660.5446" x2="660.5446" y1="53.8419" y2="3753.062"/><rect fill="#F9F9F9" height="52.6882" rx="12.5" ry="12.5" style="stroke:#444444;stroke-width:0.5;" width="257.5043" x="1076.0156" y="2209.372"/><text fill="#000000" font-family="sans-serif" font-size="12" lengthAdjust="spacing" textLength="226.6816" x="1086.0156" y="2232.2001">preprocessDevice  (same 6-kernel chain)</text><text fill="#000000" font-family="sans-serif" font-size="12" lengthAdjust="spacing" textLength="237.5043" x="1086.0156" y="2248.5442">d_plate_bgr[slot] &#8594; d_thresh[slot]  (binary)</text><rect fill="#F9F9F9" height="52.6882" rx="12.5" ry="12.5" style="stroke:#444444;stroke-width:0.5;" width="265.8804" x="1071.8275" y="2282.0602"/><text fill="#000000" font-family="sans-serif" font-size="12" lengthAdjust="spacing" textLength="108.3968" x="1081.8275" y="2304.8883">runResizeInto  &#215;1.6</text><text fill="#000000" font-family="sans-serif" font-size="12" lengthAdjust="spacing" textLength="245.8804" x="1081.8275" y="2321.2324">d_thresh &#8594; d_thresh_big  (bilinear, 1 kernel)</text><rect fill="#F9F9F9" height="69.0323" rx="12.5" ry="12.5" style="stroke:#444444;stroke-width:0.5;" width="254.1683" x="1077.6836" y="2354.7485"/><text fill="#000000" font-family="sans-serif" font-size="12" lengthAdjust="spacing" textLength="103.3687" x="1087.6836" y="2377.5765">runOtsuThreshold</text><text fill="#000000" font-family="sans-serif" font-size="12" lengthAdjust="spacing" textLength="234.1683" x="1087.6836" y="2393.9207">histogram reduction &#8594; global threshold T</text><text fill="#000000" font-family="sans-serif" font-size="12" lengthAdjust="spacing" textLength="216.5641" x="1087.6836" y="2410.2648">binarise d_thresh_big &#8594; d_thresh_otsu</text><rect fill="#F9F9F9" height="69.0323" rx="12.5" ry="12.5" style="stroke:#444444;stroke-width:0.5;" width="215.6254" x="1096.955" y="2443.7808"/><text fill="#000000" font-family="sans-serif" font-size="12" lengthAdjust="spacing" textLength="95.7247" x="1106.955" y="2466.6089">runCCLWithFilter</text><text fill="#000000" font-family="sans-serif" font-size="12" lengthAdjust="spacing" textLength="177.2879" x="1106.955" y="2482.953">d_thresh_otsu &#8594; d_filtered[slot]</text><text fill="#000000" font-family="sans-serif" font-size="12" lengthAdjust="spacing" textLength="195.6254" x="1106.955" y="2499.2971">(same CCL pipeline as scene stage)</text><rect fill="#F9F9F9" height="52.6882" rx="12.5" ry="12.5" style="stroke:#444444;stroke-width:0.5;" width="252.3563" x="1078.5896" y="2532.8131"/><text fill="#000000" font-family="sans-serif" font-size="12" lengthAdjust="spacing" textLength="108.1328" x="1088.5896" y="2555.6412">cudaMemcpyAsync</text><text fill="#000000" font-family="sans-serif" font-size="12" font-weight="bold" lengthAdjust="spacing" textLength="28.0188" x="1202.9624" y="2555.6412">D&#8594;H</text><text fill="#000000" font-family="sans-serif" font-size="12" lengthAdjust="spacing" textLength="232.3563" x="1088.5896" y="2571.9853">d_filtered[slot] &#8594; h_filtered[slot]  (pinned)</text><rect fill="#555555" height="6" rx="2.5" ry="2.5" style="stroke:#555555;stroke-width:1;" width="292.7604" x="1058.3875" y="2605.5014"/><rect fill="#F9F9F9" height="118.0647" rx="12.5" ry="12.5" style="stroke:#444444;stroke-width:0.5;" width="242.9602" x="1083.2876" y="2835.5661"/><text fill="#000000" font-family="sans-serif" font-size="12" lengthAdjust="spacing" textLength="102.8647" x="1093.2876" y="2858.3941">runCharROIResize</text><text fill="#000000" font-family="sans-serif" font-size="12" lengthAdjust="spacing" textLength="102.2767" x="1093.2876" y="2874.7383">for each char rect:</text><text fill="#000000" font-family="sans-serif" font-size="12" lengthAdjust="spacing" textLength="162.6132" x="1099.5277" y="2891.0824">crop ROI from d_thresh_otsu</text><text fill="#000000" font-family="sans-serif" font-size="12" lengthAdjust="spacing" textLength="120.6849" x="1099.5277" y="2907.4265">resize to 20&#215;30 pixels</text><text fill="#000000" font-family="sans-serif" font-size="12" lengthAdjust="spacing" textLength="111.8634" x="1099.5277" y="2923.7706">normalise &#8594; float32</text><text fill="#000000" font-family="sans-serif" font-size="12" lengthAdjust="spacing" textLength="222.9602" x="1093.2876" y="2940.1147">&#8594; d_queries[slot]  (N_chars &#215; 600 floats)</text><rect fill="#F9F9F9" height="101.7206" rx="12.5" ry="12.5" style="stroke:#444444;stroke-width:0.5;" width="264.7284" x="1072.4035" y="2973.6307"/><text fill="#000000" font-family="sans-serif" font-size="12" lengthAdjust="spacing" textLength="182.9893" x="1082.4035" y="2996.4588">runKNNDevice  (brute-force k=1)</text><text fill="#000000" font-family="sans-serif" font-size="12" lengthAdjust="spacing" textLength="161.7612" x="1082.4035" y="3012.8029">1 CUDA block per query char</text><text fill="#000000" font-family="sans-serif" font-size="12" lengthAdjust="spacing" textLength="217.3935" x="1082.4035" y="3029.1471">threads compute L2 vs all 180 samples</text><text fill="#000000" font-family="sans-serif" font-size="12" lengthAdjust="spacing" textLength="244.7284" x="1082.4035" y="3045.4912">shared-mem tree reduction &#8594; nearest label</text><text fill="#000000" font-family="sans-serif" font-size="12" lengthAdjust="spacing" textLength="118.8475" x="1082.4035" y="3061.8353">&#8594; d_knn_results[slot]</text><rect fill="#F9F9F9" height="52.6882" rx="12.5" ry="12.5" style="stroke:#444444;stroke-width:0.5;" width="268.7604" x="1070.3875" y="3095.3513"/><text fill="#000000" font-family="sans-serif" font-size="12" lengthAdjust="spacing" textLength="108.1328" x="1080.3875" y="3118.1794">cudaMemcpyAsync</text><text fill="#000000" font-family="sans-serif" font-size="12" font-weight="bold" lengthAdjust="spacing" textLength="28.0188" x="1194.7603" y="3118.1794">D&#8594;H</text><text fill="#000000" font-family="sans-serif" font-size="12" lengthAdjust="spacing" textLength="248.7604" x="1080.3875" y="3134.5235">d_knn_results[slot] &#8594; h_labels[slot]  (pinned)</text><rect fill="#555555" height="6" rx="2.5" ry="2.5" style="stroke:#555555;stroke-width:1;" width="295.6404" x="1056.9475" y="3168.0395"/><line style="stroke:#666666;stroke-width:2;" x1="1050.9475" x2="1050.9475" y1="53.8419" y2="3753.062"/><line style="stroke:#666666;stroke-width:2;" x1="1356.5879" x2="1356.5879" y1="53.8419" y2="3753.062"/><line style="stroke:#333333;stroke-width:1;" x1="197.4696" x2="197.4696" y1="103.3577" y2="123.3577"/><polygon fill="#333333" points="193.4696,113.3577,197.4696,123.3577,201.4696,113.3577,197.4696,117.3577" style="stroke:#333333;stroke-width:1;"/><line style="stroke:#333333;stroke-width:1;" x1="197.4696" x2="197.4696" y1="176.046" y2="196.046"/><polygon fill="#333333" points="193.4696,186.046,197.4696,196.046,201.4696,186.046,197.4696,190.046" style="stroke:#333333;stroke-width:1;"/><line style="stroke:#333333;stroke-width:1;" x1="197.4696" x2="197.4696" y1="265.0783" y2="290.9742"/><polygon fill="#333333" points="193.4696,280.9742,197.4696,290.9742,201.4696,280.9742,197.4696,284.9742" style="stroke:#333333;stroke-width:1;"/><line style="stroke:#333333;stroke-width:1;" x1="197.4696" x2="197.4696" y1="343.6624" y2="363.6624"/><polygon fill="#333333" points="193.4696,353.6624,197.4696,363.6624,201.4696,353.6624,197.4696,357.6624" style="stroke:#333333;stroke-width:1;"/><line style="stroke:#333333;stroke-width:1;" x1="197.4696" x2="197.4696" y1="1377.7711" y2="1397.7711"/><polygon fill="#333333" points="193.4696,1387.7711,197.4696,1397.7711,201.4696,1387.7711,197.4696,1391.7711" style="stroke:#333333;stroke-width:1;"/><line style="stroke:#333333;stroke-width:1;" x1="197.4696" x2="197.4696" y1="1450.4593" y2="1470.4593"/><polygon fill="#333333" points="193.4696,1460.4593,197.4696,1470.4593,201.4696,1460.4593,197.4696,1464.4593" style="stroke:#333333;stroke-width:1;"/><line style="stroke:#333333;stroke-width:1;" x1="197.4696" x2="197.4696" y1="1523.1475" y2="1543.1475"/><polygon fill="#333333" points="193.4696,1533.1475,197.4696,1543.1475,201.4696,1533.1475,197.4696,1537.1475" style="stroke:#333333;stroke-width:1;"/><line style="stroke:#333333;stroke-width:1;" x1="197.4696" x2="197.4696" y1="1750.7032" y2="1770.7032"/><polygon fill="#333333" points="193.4696,1760.7032,197.4696,1770.7032,201.4696,1760.7032,197.4696,1764.7032" style="stroke:#333333;stroke-width:1;"/><line style="stroke:#333333;stroke-width:1;" x1="197.4696" x2="197.4696" y1="1688.8681" y2="1714.3591"/><polygon fill="#333333" points="193.4696,1704.3591,197.4696,1714.3591,201.4696,1704.3591,197.4696,1708.3591" style="stroke:#333333;stroke-width:1;"/><line style="stroke:#333333;stroke-width:1;" x1="255.2403" x2="267.2403" y1="1676.8681" y2="1676.8681"/><polygon fill="#333333" points="263.2403,1737.0311,267.2403,1747.0311,271.2403,1737.0311,267.2403,1741.0311" style="stroke:#333333;stroke-width:1;"/><line style="stroke:#333333;stroke-width:1;" x1="267.2403" x2="267.2403" y1="1676.8681" y2="1792.7032"/><line style="stroke:#333333;stroke-width:1;" x1="267.2403" x2="197.4696" y1="1792.7032" y2="1792.7032"/><line style="stroke:#333333;stroke-width:1;" x1="197.4696" x2="197.4696" y1="1792.7032" y2="1812.7032"/><polygon fill="#333333" points="193.4696,1802.7032,197.4696,1812.7032,201.4696,1802.7032,197.4696,1806.7032" style="stroke:#333333;stroke-width:1;"/><line style="stroke:#333333;stroke-width:1;" x1="197.4696" x2="197.4696" y1="1644.8681" y2="1664.8681"/><polygon fill="#333333" points="193.4696,1654.8681,197.4696,1664.8681,201.4696,1654.8681,197.4696,1658.8681" style="stroke:#333333;stroke-width:1;"/><line style="stroke:#333333;stroke-width:1;" x1="197.4696" x2="197.4696" y1="2102.4939" y2="2122.4939"/><polygon fill="#333333" points="193.4696,2112.4939,197.4696,2122.4939,201.4696,2112.4939,197.4696,2116.4939" style="stroke:#333333;stroke-width:1;"/><line style="stroke:#333333;stroke-width:1;" x1="197.4696" x2="197.4696" y1="2158.838" y2="2183.372"/><polygon fill="#333333" points="193.4696,2173.372,197.4696,2183.372,201.4696,2173.372,197.4696,2177.372" style="stroke:#333333;stroke-width:1;"/><line style="stroke:#333333;stroke-width:1;" x1="197.4696" x2="197.4696" y1="2684.1896" y2="2704.1896"/><polygon fill="#333333" points="193.4696,2694.1896,197.4696,2704.1896,201.4696,2694.1896,197.4696,2698.1896" style="stroke:#333333;stroke-width:1;"/><line style="stroke:#333333;stroke-width:1;" x1="197.4696" x2="197.4696" y1="2789.5661" y2="2809.5661"/><polygon fill="#333333" points="193.4696,2799.5661,197.4696,2809.5661,201.4696,2799.5661,197.4696,2803.5661" style="stroke:#333333;stroke-width:1;"/><line style="stroke:#333333;stroke-width:1;" x1="197.4696" x2="197.4696" y1="3246.7278" y2="3266.7278"/><polygon fill="#333333" points="193.4696,3256.7278,197.4696,3266.7278,201.4696,3256.7278,197.4696,3260.7278" style="stroke:#333333;stroke-width:1;"/><line style="stroke:#333333;stroke-width:1;" x1="197.4696" x2="197.4696" y1="3335.7601" y2="3355.7601"/><polygon fill="#333333" points="193.4696,3345.7601,197.4696,3355.7601,201.4696,3345.7601,197.4696,3349.7601" style="stroke:#333333;stroke-width:1;"/><line style="stroke:#333333;stroke-width:1;" x1="197.4696" x2="197.4696" y1="3408.4483" y2="3428.4483"/><polygon fill="#333333" points="193.4696,3418.4483,197.4696,3428.4483,201.4696,3418.4483,197.4696,3422.4483" style="stroke:#333333;stroke-width:1;"/><line style="stroke:#333333;stroke-width:1;" x1="197.4696" x2="197.4696" y1="591.1035" y2="611.1035"/><polygon fill="#333333" points="193.4696,601.1035,197.4696,611.1035,201.4696,601.1035,197.4696,605.1035" style="stroke:#333333;stroke-width:1;"/><line style="stroke:#333333;stroke-width:1;" x1="149.0434" x2="34" y1="3440.4483" y2="3440.4483"/><polygon fill="#333333" points="30,2039.8002,34,2029.8002,38,2039.8002,34,2035.8002" style="stroke:#333333;stroke-width:1;"/><line style="stroke:#333333;stroke-width:1;" x1="34" x2="34" y1="579.1035" y2="3440.4483"/><line style="stroke:#333333;stroke-width:1;" x1="34" x2="185.4696" y1="579.1035" y2="579.1035"/><polygon fill="#333333" points="175.4696,575.1035,185.4696,579.1035,175.4696,583.1035,179.4696,579.1035" style="stroke:#333333;stroke-width:1;"/><line style="stroke:#333333;stroke-width:1;" x1="197.4696" x2="197.4696" y1="547.1035" y2="567.1035"/><polygon fill="#333333" points="193.4696,557.1035,197.4696,567.1035,201.4696,557.1035,197.4696,561.1035" style="stroke:#333333;stroke-width:1;"/><line style="stroke:#333333;stroke-width:1;" x1="197.4696" x2="197.4696" y1="3452.4483" y2="3496.6532"/><polygon fill="#333333" points="193.4696,3486.6532,197.4696,3496.6532,201.4696,3486.6532,197.4696,3490.6532" style="stroke:#333333;stroke-width:1;"/><text fill="#000000" font-family="sans-serif" font-size="11" lengthAdjust="spacing" textLength="13.4529" x="201.4696" y="3475.9302">no</text><line style="stroke:#333333;stroke-width:1;" x1="197.4696" x2="197.4696" y1="3549.3414" y2="3569.3414"/><polygon fill="#333333" points="193.4696,3559.3414,197.4696,3569.3414,201.4696,3559.3414,197.4696,3563.3414" style="stroke:#333333;stroke-width:1;"/><line style="stroke:#333333;stroke-width:1;" x1="197.4696" x2="197.4696" y1="3638.3738" y2="3658.3738"/><polygon fill="#333333" points="193.4696,3648.3738,197.4696,3658.3738,201.4696,3648.3738,197.4696,3652.3738" style="stroke:#333333;stroke-width:1;"/><line style="stroke:#333333;stroke-width:1;" x1="197.4696" x2="197.4696" y1="3711.062" y2="3731.062"/><polygon fill="#333333" points="193.4696,3721.062,197.4696,3731.062,201.4696,3721.062,197.4696,3725.062" style="stroke:#333333;stroke-width:1;"/><line style="stroke:#333333;stroke-width:1;" x1="856.746" x2="856.746" y1="785.5123" y2="805.5123"/><polygon fill="#333333" points="852.746,795.5123,856.746,805.5123,860.746,795.5123,856.746,799.5123" style="stroke:#333333;stroke-width:1;"/><line style="stroke:#333333;stroke-width:1;" x1="856.746" x2="856.746" y1="874.5447" y2="894.5447"/><polygon fill="#333333" points="852.746,884.5447,856.746,894.5447,860.746,884.5447,856.746,888.5447" style="stroke:#333333;stroke-width:1;"/><line style="stroke:#333333;stroke-width:1;" x1="856.746" x2="856.746" y1="1045.2976" y2="1065.2976"/><polygon fill="#333333" points="852.746,1055.2976,856.746,1065.2976,860.746,1055.2976,856.746,1059.2976" style="stroke:#333333;stroke-width:1;"/><line style="stroke:#333333;stroke-width:1;" x1="856.746" x2="856.746" y1="1199.7064" y2="1219.7064"/><polygon fill="#333333" points="852.746,1209.7064,856.746,1219.7064,860.746,1209.7064,856.746,1213.7064" style="stroke:#333333;stroke-width:1;"/><line style="stroke:#333333;stroke-width:1;" x1="1204.7677" x2="1204.7677" y1="2262.0602" y2="2282.0602"/><polygon fill="#333333" points="1200.7677,2272.0602,1204.7677,2282.0602,1208.7677,2272.0602,1204.7677,2276.0602" style="stroke:#333333;stroke-width:1;"/><line style="stroke:#333333;stroke-width:1;" x1="1204.7677" x2="1204.7677" y1="2334.7485" y2="2354.7485"/><polygon fill="#333333" points="1200.7677,2344.7485,1204.7677,2354.7485,1208.7677,2344.7485,1204.7677,2348.7485" style="stroke:#333333;stroke-width:1;"/><line style="stroke:#333333;stroke-width:1;" x1="1204.7677" x2="1204.7677" y1="2423.7808" y2="2443.7808"/><polygon fill="#333333" points="1200.7677,2433.7808,1204.7677,2443.7808,1208.7677,2433.7808,1204.7677,2437.7808" style="stroke:#333333;stroke-width:1;"/><line style="stroke:#333333;stroke-width:1;" x1="1204.7677" x2="1204.7677" y1="2512.8131" y2="2532.8131"/><polygon fill="#333333" points="1200.7677,2522.8131,1204.7677,2532.8131,1208.7677,2522.8131,1204.7677,2526.8131" style="stroke:#333333;stroke-width:1;"/><line style="stroke:#333333;stroke-width:1;" x1="1204.7677" x2="1204.7677" y1="2585.5014" y2="2605.5014"/><polygon fill="#333333" points="1200.7677,2595.5014,1204.7677,2605.5014,1208.7677,2595.5014,1204.7677,2599.5014" style="stroke:#333333;stroke-width:1;"/><line style="stroke:#333333;stroke-width:1;" x1="1204.7677" x2="1204.7677" y1="2953.6307" y2="2973.6307"/><polygon fill="#333333" points="1200.7677,2963.6307,1204.7677,2973.6307,1208.7677,2963.6307,1204.7677,2967.6307" style="stroke:#333333;stroke-width:1;"/><line style="stroke:#333333;stroke-width:1;" x1="1204.7677" x2="1204.7677" y1="3075.3513" y2="3095.3513"/><polygon fill="#333333" points="1200.7677,3085.3513,1204.7677,3095.3513,1208.7677,3085.3513,1204.7677,3089.3513" style="stroke:#333333;stroke-width:1;"/><line style="stroke:#333333;stroke-width:1;" x1="1204.7677" x2="1204.7677" y1="3148.0395" y2="3168.0395"/><polygon fill="#333333" points="1200.7677,3158.0395,1204.7677,3168.0395,1208.7677,3158.0395,1204.7677,3162.0395" style="stroke:#333333;stroke-width:1;"/><line style="stroke:#333333;stroke-width:1;" x1="197.4696" x2="197.4696" y1="680.1359" y2="685.1359"/><line style="stroke:#333333;stroke-width:1;" x1="197.4696" x2="856.746" y1="685.1359" y2="685.1359"/><line style="stroke:#333333;stroke-width:1;" x1="856.746" x2="856.746" y1="685.1359" y2="700.1359"/><polygon fill="#333333" points="852.746,690.1359,856.746,700.1359,860.746,690.1359,856.746,694.1359" style="stroke:#333333;stroke-width:1;"/><line style="stroke:#333333;stroke-width:1;" x1="856.746" x2="856.746" y1="1305.0828" y2="1310.0828"/><line style="stroke:#333333;stroke-width:1;" x1="856.746" x2="197.4696" y1="1310.0828" y2="1310.0828"/><line style="stroke:#333333;stroke-width:1;" x1="197.4696" x2="197.4696" y1="1310.0828" y2="1325.0828"/><polygon fill="#333333" points="193.4696,1315.0828,197.4696,1325.0828,201.4696,1315.0828,197.4696,1319.0828" style="stroke:#333333;stroke-width:1;"/><line style="stroke:#333333;stroke-width:1;" x1="197.4696" x2="197.4696" y1="1898.0796" y2="1903.0796"/><line style="stroke:#333333;stroke-width:1;" x1="197.4696" x2="856.746" y1="1903.0796" y2="1903.0796"/><line style="stroke:#333333;stroke-width:1;" x1="856.746" x2="856.746" y1="1903.0796" y2="1918.0796"/><polygon fill="#333333" points="852.746,1908.0796,856.746,1918.0796,860.746,1908.0796,856.746,1912.0796" style="stroke:#333333;stroke-width:1;"/><line style="stroke:#333333;stroke-width:1;" x1="856.746" x2="856.746" y1="2019.8002" y2="2032.3057"/><line style="stroke:#333333;stroke-width:1;" x1="856.746" x2="197.4696" y1="2032.3057" y2="2032.3057"/><line style="stroke:#333333;stroke-width:1;" x1="197.4696" x2="197.4696" y1="2032.3057" y2="2049.8057"/><polygon fill="#333333" points="193.4696,2039.8057,197.4696,2049.8057,201.4696,2039.8057,197.4696,2043.8057" style="stroke:#333333;stroke-width:1;"/><line style="stroke:#333333;stroke-width:1;" x1="197.4696" x2="197.4696" y1="2189.372" y2="2193.372"/><line style="stroke:#333333;stroke-width:1;" x1="197.4696" x2="1204.7677" y1="2193.372" y2="2193.372"/><line style="stroke:#333333;stroke-width:1;" x1="1204.7677" x2="1204.7677" y1="2193.372" y2="2209.372"/><polygon fill="#333333" points="1200.7677,2199.372,1204.7677,2209.372,1208.7677,2199.372,1204.7677,2203.372" style="stroke:#333333;stroke-width:1;"/><line style="stroke:#333333;stroke-width:1;" x1="1204.7677" x2="1204.7677" y1="2611.5014" y2="2616.5014"/><line style="stroke:#333333;stroke-width:1;" x1="1204.7677" x2="197.4696" y1="2616.5014" y2="2616.5014"/><line style="stroke:#333333;stroke-width:1;" x1="197.4696" x2="197.4696" y1="2616.5014" y2="2631.5014"/><polygon fill="#333333" points="193.4696,2621.5014,197.4696,2631.5014,201.4696,2621.5014,197.4696,2625.5014" style="stroke:#333333;stroke-width:1;"/><line style="stroke:#333333;stroke-width:1;" x1="197.4696" x2="197.4696" y1="2815.5661" y2="2819.5661"/><line style="stroke:#333333;stroke-width:1;" x1="197.4696" x2="1204.7677" y1="2819.5661" y2="2819.5661"/><line style="stroke:#333333;stroke-width:1;" x1="1204.7677" x2="1204.7677" y1="2819.5661" y2="2835.5661"/><polygon fill="#333333" points="1200.7677,2825.5661,1204.7677,2835.5661,1208.7677,2825.5661,1204.7677,2829.5661" style="stroke:#333333;stroke-width:1;"/><line style="stroke:#333333;stroke-width:1;" x1="1204.7677" x2="1204.7677" y1="3174.0395" y2="3179.0395"/><line style="stroke:#333333;stroke-width:1;" x1="1204.7677" x2="197.4696" y1="3179.0395" y2="3179.0395"/><line style="stroke:#333333;stroke-width:1;" x1="197.4696" x2="197.4696" y1="3179.0395" y2="3194.0395"/><polygon fill="#333333" points="193.4696,3184.0395,197.4696,3194.0395,201.4696,3184.0395,197.4696,3188.0395" style="stroke:#333333;stroke-width:1;"/><text fill="#000000" font-family="sans-serif" font-size="18" lengthAdjust="spacing" textLength="90.2514" x="292.6466" y="73.0838">Host (CPU)</text><text fill="#000000" font-family="sans-serif" font-size="18" lengthAdjust="spacing" textLength="174.0949" x="768.6986" y="73.0838">GPU &#8212; sceneStream</text><text fill="#000000" font-family="sans-serif" font-size="18" lengthAdjust="spacing" textLength="284.4522" x="1061.5416" y="73.0838">GPU &#8212; plateStreams [&#215;N parallel]</text><?plantuml-src jLZRRXl94NtNLnIS5qfBSYNPKR9qx42YrhPWMIOasGuY2a9pfaaEDDCzwMvAuiO1zYb0tk9W0R_cilaI_uc_9AUgXwCXRGK64ik6D9VgxkfJfqvLJyX2hkdfu1KTPeasNjCWLq7JiKxin6GXiuO6MQdppEYrDN-PcL8vLP1AGdQLXVcUIYudpivCshUvTVIByNVyxtEMrgNQLLOF7ZnecFZhhCYLqKicEpixTvgSJhFaqcZlQRkvadFskXfz__xznXjZW_xKq_4urRzQjMgwCDvKwGDi--qpwmEr-eDNws_NV50khAtr1ie1hVxX0TQT-A5fPOMQQ2fLcBQfqodKJQTaA3qTjIdnL_9c_I56vbQbpu-ENjXKvwrxbyPSf2gexYWpzzQ7nccLqXI_jAEFV_uRcLbneeeor_xHrgytspJMAimSxdOsDolhN8rqxi_EwPl5MofKSDdDmnNVUOVaiiaqh15jR3oJ1VQ9MjReJiWAlRwnWJTOXpwy9on0OpWRxczJS2epcPaGktfhaXb-6TV7KvwEkVJwUFS5jKhjVEQ3De76W5FbEGb6VdrDcrJWNl6l1-1pdGInxPPbGRUW0kAnimMbcOE5TNDgUUk2JWNJ1KVxrWHz4tgz1CW4tK8OXD0Uo7xywSUlz7zeabcgJWBMBFgoSCI2F79An-TtsWXBudD_jjdj7fr7qnS0mIQ8wUqDOpKq609koBRsPkCnhdrkGuzVf1SosyLeujgu2LCGPNfxTJ7A9j6ikhV1p_ZrECk3TZhbwp_CjCkqZtRCJbZEyk3RD6tOJIzYr8VcXFSO7UajJNLh3YvaniHGELrYysjWorBeYIGl1eCNIAJ9W7C54GC-R7GWBFYZa6-ZJTTPoaasrSna-XDxsdBgcewVxj5epYcN6SAq11hoabYAMVdnnv-Q0P4r_QtpNSWVKkSa-q6tthJf6TRFrGzpWgq4WeSRsx4bPMFogj3aOKhAW__OnnWIeY43wONCkGX1l5a4Gku6WC3PP6WW9NEIoH6p54hfB2GjvWXlOONKSIizeOCkadA-w-ScaKG6KFiR6qDJWzLbg8HV3N_WtPiFxvzzU7y_mjI6ypm3DBw1IxLC6Rs4oExhAzG64W1sw58xWxYtgQoyIxzcPdr1wdryztS2EWw5vhNAPxe_LU1QJhJtz5WGU4qi0vJ4vqohT_yWxI2_jFBpka9CNlA-tlqJUYC5SVbdOLBPsnBefQoZk81AoXh_-lpGnHhnfIpoy-UzgMsg4KbklQp25ujL_aqgLILAh3uLZjayvR49AED0osz6-SmjyI1I4REWtYWthwBjPgRVFtoJXUaJoTcl5jCXyCd2eMW7dDWYzaUbtvRPZSGcm-AAj_FAeFTuaXdUyCU__Bpzonsgtbd3QfxOefonSAh04usuidE16jaRy1fpmYRgprvkH_wvq1Q6ofTSOMIYsZ02j92hitFEN1JU-icTcRUFaSyuysv72zeDxQl5ZusQarQ6IuyQngsxatDLEMyhomc6J9qrB6BDORp5lzAroc8jHgn9NATW8L-ciS4dJkiLid3brGlPWY14lVHnp8ZHFRN8EkTRpGg1VJsfRYg41v2tR9HpXZfqAzTW6zLnuwfUJSbjMXadJFWtXa-qBJHQcWHfh9DB7wiTkWjb4eqmcacEFoB8FYkGDWujPrprIjg5trH_cZuyVYobGwjaIeowOrjw1CXrhCgK09eCKgeZxX3-bh4a_da02TT_kmu6QqEjEVSrd7ezT9HbLF67yc1Y0RA1H8aoun6ehtaYjaSdb8rbruMwr5BKM-jIu6MLckVaR10jO9m8mG6mw0raup1YK817WHh6-K7867gn-xkBmU7kwVSNhFeHZ3VAbGFkTZsJV066B7js_jzB9IHYJuLaobFqdIs_ZaGC3VT-LUUC6gY8fGvdb5XtGDOPTikfL9SrmD3SrYARwqxeZDkZSvA6b4fhS-cN_a-PnDwYReCE2F8OskQdT-GIF94tIqquQyYRtTVVqvPWNk-zwWS9e3CAV411PvnBUqxq4WJjlzhV9IzcGfT8MDuPjRYBx6nLzAeQRM9tBsLu7UAbfSu-l3-g5pf_6xdyQHVGajPdfrF50mcQ6P6sLRnZ5AA2r25e5ft8gMFDMNjW01zE55lT7PwhAbBDARXtbGcuvr3ehROgIZGdUub-jgw3GpE5GDW9d-qWGhD4JhCyvmIQfN8ATSKy7HhnBFDwUS4b3xXRRYosKZ2Np6YbeiZ-eUa27glledlY_b7uWLX27UhDV5cjQK0zNNtOQBeZ3oJ-Tt0-HhV9-OheDIEHOrUwirLHpbCAbQmgWFQ1vVGf2rObNZ84e3QAGqI-bdQvBN6EHqexDBnX8NXE5_OAX80UlxpIBbSbzZ69MStbOALaLBBr-QpQ_lAi-bypXGa1xuvV7aH6esX27gIsYDVih5GjLWk26SNZR9Cr_Dh9Q5QJxKrqwfiadP4SnunrXSgPeun5TJHVo5rrRAk3VtGXjNFf8E-RkVBywAZEwP53YUd0OTnTFjf2xBUYm220Y117bEUVorQ69lPidXQrwN2Rhhp0pDy5VFnSWVCDZ7NQANH1WPLmEGavYpdiSevSxA9ntemx-R9y-6HObHBLbv6lc13Rdqa8vRqkK5R15z2qjN2ZJLLCk7lb8-FkIV_WeFg6KhERBtn8UpqleoCmic0NJoHr5WSqZ6HQyOSwFXZ4eWcHuSybCi-zaxtlDaz_VwzDEYJT67pnPQaTYITokfvcABEjmZfTdK7HssI-wcmwZurT_PpKmqZ-1EEwrsYtTDzVjUJG7BH9vcsMLpkRJC6GTkLRMxR8_lUISDDD4Nvdvpo86qo15WdtRGmJZMARYVX6EtbVeSrJy9ZwEzfw_6XILTp5vwhsuZeUE30A1Q5S-my0?></g></svg>